<svg width="256" height="278" viewBox="0 0 256 278" xmlns="http://www.w3.org/2000/svg" preserveAspectRatio="xMidYMid"><path d="M90.317 59.645c-36.264-6.605-64.936.308-76.364 20.101-8.527 14.77-6.09 34.353 5.911 55.285 1.021 1.782 3.294 2.398 5.076 1.376 1.782-1.021 2.398-3.294 1.376-5.076-10.811-18.856-12.915-35.757-5.923-47.867 9.493-16.442 35.068-22.608 68.591-16.503 2.02.368 3.957-.972 4.325-2.992.368-2.02-.972-3.957-2.992-4.325zm53.63-33.684c-2.959 5.723-8.933 9.635-15.82 9.635-9.829 0-17.798-7.968-17.798-17.798 0-9.829 7.968-17.798 17.798-17.798 9.829 0 17.798 7.968 17.798 17.798 0 .257-.005.513-.016.767 29.461 15.237 49.934 67.197 49.934 127.226 0 24.689-3.452 48.382-9.879 68.92-.613 1.96-2.699 3.052-4.659 2.438-1.96-.613-3.052-2.699-2.438-4.659 6.197-19.802 9.539-42.746 9.539-66.699 0-56.524-18.789-105.163-44.458-119.83zm-127.479 167.358c.439-.032.882-.049 1.329-.049 9.829 0 17.798 7.968 17.798 17.798 0 9.829-7.968 17.798-17.798 17.798-9.829 0-17.798-7.968-17.798-17.798 0-6.691 3.693-12.52 9.151-15.56-2.681-33.264 32.282-77.854 85.119-108.359 21.947-12.671 44.799-21.665 66.268-26.264 2.008-.43 3.985.849 4.415 2.857.43 2.008-.849 3.985-2.857 4.415-20.691 4.433-42.817 13.141-64.107 25.433-49.759 28.728-82.661 70.135-81.521 99.73zm206.259 26.547c-1.478-2.595-2.323-5.598-2.323-8.798 0-9.829 7.968-17.798 17.798-17.798 9.829 0 17.798 7.968 17.798 17.798 0 9.829-7.968 17.798-17.798 17.798-3.873 0-7.458-1.237-10.38-3.338-28.393 16.703-82.625 8.184-133.661-21.282-21.725-12.543-40.775-27.657-55.438-43.771-1.382-1.519-1.271-3.871.248-5.253 1.519-1.382 3.871-1.271 5.253.248 14.134 15.532 32.58 30.167 53.656 42.335 48.165 27.808 98.886 36.083 124.847 22.061zm-1.165-63.915c-1.327 1.568-3.673 1.763-5.241.436-1.568-1.327-1.763-3.673-.436-5.241 21.946-25.926 29.34-51.085 19.867-67.492-6.876-11.91-22.159-18.52-43.362-18.796-2.054-.027-3.697-1.713-3.67-3.767.027-2.054 1.713-3.697 3.767-3.67 23.575.307 41.315 7.98 49.706 22.514 11.404 19.752 3.113 47.965-20.632 76.016zm-148.998 65.541c-.692-1.933.314-4.062 2.247-4.755 1.933-.692 4.062.314 4.755 2.247 11.476 32.044 29.591 51.081 48.563 51.081 13.645 0 26.911-9.774 37.71-27.739 1.058-1.76 3.343-2.329 5.103-1.271 1.76 1.058 2.329 3.343 1.271 5.103-12.017 19.99-27.428 31.345-44.085 31.345-22.839 0-43.149-21.344-55.564-56.011zm175.999-10.424c0-5.722-4.639-10.361-10.361-10.361s-10.361 4.639-10.361 10.361 4.639 10.361 10.361 10.361 10.361-4.639 10.361-10.361zm-230.765 10.361c5.722 0 10.361-4.639 10.361-10.361s-4.639-10.361-10.361-10.361-10.361 4.639-10.361 10.361 4.639 10.361 10.361 10.361zm110.33-193.27c5.722 0 10.361-4.639 10.361-10.361s-4.639-10.361-10.361-10.361-10.361 4.639-10.361 10.361 4.639 10.361 10.361 10.361zm2.718 130.219c-6.952 1.502-13.8-2.916-15.305-9.868-1.499-6.952 2.916-13.8 9.867-15.305 6.952-1.502 13.8 2.916 15.305 9.868 1.502 6.952-2.916 13.8-9.867 15.305z" fill="#47848F"/></svg>