<svg width="256" height="256" viewBox="0 0 256 256" xmlns="http://www.w3.org/2000/svg" preserveAspectRatio="xMidYMid"><path fill="#F26522" d="M0 0h256v256h-256z"/><path d="M105.536 159.959h39.157v-10.653h-27.064v-16.507h24.953v-10.653h-24.953v-15.452h27.064v-10.653h-39.157v63.918zm91.462-17.371c0-12.764-.864-15.548-18.043-19.674-11.037-2.687-11.229-2.879-11.229-10.173 0-5.566 1.44-7.294 9.597-7.294 5.566 0 11.805.768 17.083 1.919l1.344-10.173c-6.334-1.44-13.052-2.111-18.619-2.111-16.219 0-21.498 5.758-21.498 17.371 0 13.532 2.111 16.507 17.563 19.962 11.517 2.495 11.709 3.071 11.709 10.173 0 6.142-1.44 7.966-10.173 7.966-6.334 0-12.093-1.152-18.043-2.975l-2.111 9.501c4.223 2.015 12.668 3.839 19.962 3.839 18.907 0 22.458-6.238 22.458-18.331zm22.266-23.801c0-9.789 4.703-11.709 16.027-11.709 2.015 0 6.238.288 9.021.864l.768-9.789c-2.879-.672-7.486-1.152-11.037-1.152-17.467 0-26.488 5.374-26.488 22.266v23.321c0 11.037 3.263 18.331 19.77 18.331 15.068 0 19.674-7.486 19.674-17.467v-4.607c0-11.037-4.703-15.836-16.315-15.836-4.127 0-8.062.576-11.421 1.728v-5.95zm9.597 14.3c4.223 0 6.43 1.44 6.43 6.046v4.703c0 4.895-1.919 7.006-7.966 7.006-6.046 0-8.062-1.728-8.062-7.006v-8.734c2.687-1.152 6.142-2.015 9.597-2.015z" fill="#fff"/></svg>