<svg width="256" height="250" viewBox="0 0 256 250" xmlns="http://www.w3.org/2000/svg" preserveAspectRatio="xMidYMid"><path d="M128.001 0c-70.684 0-128.001 57.307-128.001 128.001 0 56.554 36.676 104.534 87.535 121.46 6.397 1.185 8.746-2.777 8.746-6.158 0-3.052-.119-13.135-.174-23.831-35.61 7.743-43.124-15.102-43.124-15.102-5.823-14.795-14.212-18.729-14.212-18.729-11.614-7.944.875-7.781.875-7.781 12.854.903 19.622 13.191 19.622 13.191 11.416 19.569 29.944 13.911 37.249 10.641 1.149-8.273 4.466-13.92 8.127-17.116-28.431-3.237-58.318-14.212-58.318-63.259 0-13.975 5-25.393 13.188-34.357-1.329-3.224-5.71-16.243 1.24-33.874 0 0 10.749-3.44 35.209 13.121 10.21-2.836 21.16-4.258 32.038-4.307 10.878.049 21.837 1.471 32.066 4.307 24.431-16.561 35.165-13.121 35.165-13.121 6.967 17.631 2.584 30.65 1.255 33.874 8.207 8.964 13.174 20.382 13.174 34.357 0 49.163-29.944 59.988-58.447 63.157 4.591 3.972 8.682 11.762 8.682 23.704 0 17.127-.148 30.911-.148 35.127 0 3.406 2.304 7.398 8.792 6.141 50.831-16.944 87.461-64.908 87.461-121.443 0-70.694-57.309-128.001-127.999-128.001zm-80.061 182.34c-.282.636-1.282.827-2.194.39-.928-.418-1.45-1.285-1.149-1.923.276-.655 1.278-.837 2.204-.398.931.418 1.46 1.293 1.138 1.931zm6.296 5.618c-.61.566-1.804.303-2.614-.591-.837-.892-.994-2.086-.375-2.66.63-.566 1.787-.301 2.626.591.837.903 1 2.088.362 2.66zm4.319 7.188c-.784.545-2.067.034-2.859-1.104-.784-1.138-.784-2.503.017-3.05.795-.547 2.058-.055 2.862 1.075.782 1.157.782 2.522-.019 3.08zm7.305 8.325c-.702.774-2.196.566-3.29-.49-1.119-1.032-1.431-2.497-.727-3.271.71-.776 2.213-.557 3.315.49 1.111 1.03 1.45 2.505.702 3.271zm9.441 2.81c-.309 1.003-1.749 1.458-3.199 1.032-1.448-.439-2.395-1.613-2.103-2.626.301-1.009 1.747-1.484 3.207-1.028 1.446.437 2.395 1.602 2.094 2.622zm10.744 1.192c.036 1.056-1.193 1.931-2.715 1.95-1.53.034-2.768-.82-2.785-1.859 0-1.066 1.202-1.933 2.732-1.959 1.522-.03 2.768.818 2.768 1.867zm10.555-.405c.182 1.03-.875 2.088-2.387 2.37-1.486.271-2.862-.365-3.05-1.386-.184-1.056.892-2.113 2.376-2.387 1.513-.263 2.868.356 3.061 1.403z" fill="#161614"/></svg>