<svg width="512" height="116" viewBox="0 0 512 116" xmlns="http://www.w3.org/2000/svg"><g fill="none"><path d="M489.718 8.646l21.421.118s-39.825 53.964-43.077 58.362c-1.056 1.424-2.661 2.96-3.474 4.864-2.057 4.787-4.169 15.285-4.169 15.285l-19.599.097s3.049-10.943 2.924-16.772c-.111-5.093-2.71-10.178-4.169-15.285-1.473-5.169-3.474-15.285-3.474-15.285h20.149l2.779 11.117 30.689-42.5M449.157 20.027c3.953 2.383 6.378 15.529 6.378 15.529s-20.684.305-31.94.305h-9.727l-11.811 51.415h-18.064s11.241-55.875 13.896-66.005c.861-3.279 5.892-2.717 14.389-2.717h13.569c8.762 0 19.003-1.118 23.311 1.473" fill="#1A1918"/><path d="M365.06 45.067s.563-3.301-1.911-7.122c-2.112-3.258-4.064-4.016-9.622-4.189-15.695-.493-15.39 11.137-15.39 11.137l26.923.174zm17.023-13.319c2.3 8.296-2.084 27.791-2.084 27.791s-22.894-.383-35.434 0c-3.899.119-8.567-.424-9.727 1.39-1.633 2.542.596 6.455 2.486 8.108 2.176 1.904 6.413 2.12 7.935 2.314 10.178 1.293 31.481.333 31.481.333l-3.69 16.341s-30.104 1.509-45.161-2.084c-2.973-.708-5.76-2.139-7.643-4.169-.514-.555-.959-1.312-1.446-1.966-.388-.522-1.52-2.237-2.028-3.593-3.439-9.164.403-26.721 4.169-36.128.437-1.091.987-2.473 1.564-3.648.722-1.465 1.333-3.119 1.91-3.995.388-.604.869-.994 1.272-1.563.465-.674 1.006-1.327 1.508-1.91 1.389-1.613 2.966-2.752 4.863-4.169 6.273-4.697 17.627-8.345 31.265-6.948 5.135.528 12.889 2.362 16.675 7.643 1.014 1.41 1.514 4.21 2.084 6.253zM299.229 18.491l17.516-.104s-9.761 46.308-14.736 68.889h-20.149c-14.083 0-26.624 1.744-31.96-8.338-5.176-9.789-.236-25.887 2.084-36.824 1.64-7.74 5.094-23.56 5.094-23.56l18.148-.167s-5.128 24.63-7.261 36.928c-.764 4.405-2.34 8.553-.694 11.811 1.563 3.099 3.752 3.321 10.421 3.474 2.113.049 9.033 0 9.033 0l12.506-52.109" fill="#1A1918"/><path d="M217.244 51.84c1.834-6.517 4.509-13.583 4.169-19.454-.368-6.28-5.634-11.999-9.032-13.2-10.234-3.613-19.815 1.438-23.623 5.557-4.927 5.337-6.594 11.569-8.338 20.149-1.299 6.371-2.362 13.096 0 18.064 4.182 8.782 17.224 6.865 31.265 6.948 2.084-5.586 3.808-11.86 5.558-18.065zm24.318-25.707c2.001 14.549-5.676 30.606-10.964 44.57 5.392.486 10.116-.076 10.457.327.354.522-3.613 16.668-4.996 16.71-4.279.112-18.459.23-24.373.23-19.294 0-37.345 1.257-46.55-8.337-3.738-3.898-6.323-10.582-6.948-15.285-1.043-7.852.264-16.495 2.084-23.623 1.647-6.434 3.759-12.507 6.948-18.065 8.108-14.153 22.212-24.657 45.855-22.233 4.585.473 11.172 2.481 15.285 4.863.284.168 1.279.959 1.508 1.099 5.558 3.537 10.624 11.978 11.694 19.745zM156.193 18.574c-1.167 5.315-2.334 11.34-3.564 16.592h-19.454c1.508-5.822 2.661-11.61 4.169-16.675 6.225 0 12.013.083 18.85.083M132.48 40.029h18.759c-2.452 13.577-7.308 35.476-11.116 50.719-2.383 9.54-3.974 16.502-10.422 21.538-.577.452-.909.237-1.389.695-1.189 1.133-6.684 2.446-9.727 2.779-4.947.536-10.54.07-16.619-.055 1.591-5.815 3.391-12.798 4.808-18.009 14.82 1.793 15.195-12.214 18.064-25.707 1.661-7.796 6.691-28.834 7.643-31.961" fill="#1A1918"/><g fill="#21609B"><path d="M88.708 75.464l-.402 1.042c-6.851 13.339-18.989 21.525-36.303 21.886-8.094.167-15.806-1.91-20.844-4.169-10.873-4.885-20.017-13.944-25.011-23.623-7.164-13.875-8.456-33.176 6.44-47.592l-1.577 3.126-.41 1.334c-10.734 33.607 22.337 62.406 54.485 59.112 7.726-.792 17.579-5.023 23.623-11.116M69.254 61.568c8.088.056 16.536-3.724 21.538-9.032-4.377 11.11-17.049 18.252-34.044 15.98-14.229-1.904-27.784-16.223-29.181-30.571-1.021-10.442 2.619-16.674 8.616-24.234-2.084 3.954-2.863 7.003-3.057 8.948-2.278 22.588 18.044 38.79 36.128 38.908M89.981 33.512c-1.257 2.884-8.497 8.33-11.694 9.011-12.659 2.696-20.766-3.306-25.012-10.137-.632-1.021-1.799-3.807-2.008-4.516-1.647-5.6-.89-14.069 4.023-18.454-1.48 4.169-1.696 9.011-.917 12.159.472 1.904 1.91 5.226 3.349 7.316 2.619 3.808 4.279 4.733 7.643 6.754 1.514.91 3.14 1.64 3.842 1.841 3.189.938 9.921 3.411 20.774-3.974"/></g></g></svg>