<svg xmlns="http://www.w3.org/2000/svg" viewBox="0 0 500 194.7" enable-background="new 0 0 500 194.7"><style type="text/css">.st0{fill:#009CFF;}</style><g id="レイヤー_1_1_"><path class="st0" d="M144.3 56.5c-11.2-9.7-26.8-15.4-44.9-15.4-47.3 0-79.5 36.5-79.5 36.5l9 14.4s5 .4 2.4-8.1c2.3-4.3 6.8-10.2 15.6-16.9v95.8c-3.8 1.1-8.8 3.1-5.4 6.5h26.1c3.4-3.4-2-5.5-5.3-6.5v-22.6s17.9 7 37.1 7c16.9 0 32.3-5 43.8-14.1 11.5-9 18.8-22.5 18.8-37.9-.1-15.1-6.6-29-17.7-38.7zm-13.8 69.2c-7.9 7.8-19.4 12.8-32.7 12.7-14.8 0-27.3-2.9-35.5-6.9v-71.9c9-6.4 23.7-10.4 35.5-10.3 14.4 0 25.7 5.4 33.3 13.7 7.6 8.3 11.8 19.3 11.8 32.1-.1 12.4-4.5 22.7-12.4 30.6zM184.9 41.2h-5.3c-2.4 0-4.3 1.9-4.3 4.3v98c0 2.4 1.9 4.3 4.3 4.3h5.3c2.4 0 4.3-1.9 4.3-4.3v-98c0-2.4-1.9-4.3-4.3-4.3zM323.6 41.2h-5.3c-2.4 0-4.3 1.9-4.3 4.3v98c0 2.4 1.9 4.3 4.3 4.3h5.3c2.4 0 4.3-1.9 4.3-4.3v-98c0-2.4-1.9-4.3-4.3-4.3zM448.4 41.2h-4.9c-3.9 0-5 .5-6.7 4-1.7 3.5-40.2 79.6-40.2 79.6s-38.4-76.2-40.2-79.6c-1.7-3.5-2.8-4-6.7-4h-4.9s-5.6 1.6-3.5 5.7c2.1 4.1 49.4 97 49.4 97 1.2 2.4 3.5 3.8 6 3.8s4.7-1.4 6-3.8c.1-.2 47.3-92.9 49.4-97 1.9-4.1-.1-5.7-3.7-5.7zM281.7 144.1c2 2.6 3.4 3.6 7.3 3.6h8s3.2-2.3 1.8-4.1c-3.5-4.7-38.4-49-38.4-49s36.1-44.6 39.7-49.3c1.4-1.9 3.2-4.1-1.8-4.1h-8c-3.9 0-5.3 1-7.3 3.6s-31.4 38.7-31.4 38.7-29.4-36.1-31.4-38.7c-2-2.6-3.4-3.6-7.3-3.6h-8c-5 0-3.2 2.3-1.8 4.1 3.5 4.7 39.7 49.3 39.7 49.3s-35.9 44.3-39.5 49c-1.4 1.9-3.2 4.1 1.8 4.1h8c3.9 0 5.3-1 7.3-3.6s31.2-38.4 31.2-38.4 28.1 35.9 30.1 38.4zM182.3 0c-3.2 0-5.8 1.1-7.9 3.2-2.1 2.1-3.2 4.7-3.2 7.9s1.1 5.8 3.2 7.9c2.1 2.1 4.7 3.2 7.9 3.2s5.8-1.1 7.9-3.2c2.1-2.1 3.2-4.7 3.2-7.9s-1.1-5.8-3.2-7.9c-2.1-2.1-4.8-3.2-7.9-3.2zM321 0c-3.2 0-5.8 1.1-7.9 3.2-2.1 2.1-3.2 4.7-3.2 7.9s1.1 5.8 3.2 7.9c2.1 2.1 4.7 3.2 7.9 3.2s5.8-1.1 7.9-3.2c2.1-2.1 3.2-4.7 3.2-7.9s-1.1-5.8-3.2-7.9c-2.1-2.1-4.8-3.2-7.9-3.2z"/></g></svg>