<svg width="256" height="230" viewBox="0 0 256 230" xmlns="http://www.w3.org/2000/svg" preserveAspectRatio="xMidYMid"><path d="M251.22 187.856c5.784 10.046 6.345 20.609 1.538 28.958-4.8 8.357-14.192 13.143-25.768 13.143h-21.816c.259-4.067.431-8.17.431-12.302 0-4.628-.216-9.198-.532-13.753l14.35-.014c3.528 0 6.381-2.867 6.381-6.402 0-1.107-.28-2.134-.769-3.054l-91.46-158.969c-1.085-1.933-3.162-3.241-5.54-3.241-2.314 0-4.34 1.236-5.461 3.09l-14.522 25.243c44.135 33.27 73.804 84.813 77.864 143.333.316 4.549.532 9.119.532 13.753 0 4.132-.172 8.228-.424 12.302h-71.246c.388-4.053.611-8.149.611-12.302 0-4.649-.273-9.234-.776-13.753-3.521-32.206-19.286-60.748-42.503-80.889l-10.002 17.375c17.54 16.326 29.512 38.558 32.767 63.514.589 4.505.92 9.09.92 13.753 0 4.153-.273 8.264-.74 12.302h-66.044c-11.576 0-20.968-4.793-25.768-13.15-4.807-8.35-4.247-18.906 1.538-28.958l13.559-23.239c7.775 4.175 14.759 9.614 20.716 16.053l-8.084 13.768c-.481.913-.769 1.947-.769 3.054 0 3.535 2.853 6.395 6.381 6.395l32.034.014c-2.687-15.356-9.773-29.21-19.919-40.182-5.978-6.446-12.963-11.9-20.738-16.074l35.77-62.149c7.617 4.261 14.824 9.147 21.564 14.623 30.827 25.013 51.644 61.955 55.416 103.776h19.171c-3.909-48.891-28.477-92.006-64.937-120.547-6.834-5.346-14.07-10.189-21.672-14.458l30.532-53.045c5.777-10.053 14.616-15.823 24.23-15.823 9.607 0 18.438 5.77 24.223 15.823l98.961 172.033z" fill="#FB2D26"/></svg>