<svg width="256" height="153" viewBox="0 0 256 153" xmlns="http://www.w3.org/2000/svg" preserveAspectRatio="xMidYMid"><path d="M72.392 55.438c0 3.136.339 5.679.932 7.544.678 1.865 1.526 3.899 2.713 6.103.424.678.593 1.356.593 1.95 0 .848-.509 1.695-1.611 2.543l-5.34 3.56c-.763.509-1.526.763-2.204.763-.848 0-1.695-.424-2.543-1.187-1.187-1.272-2.204-2.628-3.052-3.984-.848-1.441-1.695-3.052-2.628-5.001-6.612 7.799-14.919 11.698-24.922 11.698-7.121 0-12.8-2.034-16.954-6.103s-6.273-9.494-6.273-16.275c0-7.205 2.543-13.054 7.714-17.462 5.171-4.408 12.037-6.612 20.768-6.612 2.882 0 5.849.254 8.985.678 3.136.424 6.358 1.102 9.748 1.865v-6.188c0-6.442-1.356-10.935-3.984-13.563-2.713-2.628-7.29-3.899-13.817-3.899-2.967 0-6.019.339-9.155 1.102-3.136.763-6.188 1.695-9.155 2.882-1.356.593-2.374.932-2.967 1.102-.593.17-1.017.254-1.356.254-1.187 0-1.78-.848-1.78-2.628v-4.154c0-1.356.17-2.374.593-2.967.424-.593 1.187-1.187 2.374-1.78 2.967-1.526 6.527-2.797 10.681-3.815 4.154-1.102 8.562-1.611 13.224-1.611 10.087 0 17.462 2.289 22.209 6.866 4.662 4.577 7.036 11.528 7.036 20.853v27.465h.17zm-34.416 12.885c2.797 0 5.679-.509 8.731-1.526 3.052-1.017 5.764-2.882 8.053-5.425 1.356-1.611 2.374-3.391 2.882-5.425.509-2.034.848-4.493.848-7.375v-3.56c-2.458-.593-5.086-1.102-7.799-1.441-2.713-.339-5.34-.509-7.968-.509-5.679 0-9.833 1.102-12.63 3.391-2.797 2.289-4.154 5.51-4.154 9.748 0 3.984 1.017 6.951 3.136 8.985 2.034 2.119 5.001 3.136 8.901 3.136zm68.069 9.155c-1.526 0-2.543-.254-3.221-.848-.678-.509-1.272-1.695-1.78-3.306l-19.921-65.526c-.509-1.695-.763-2.797-.763-3.391 0-1.356.678-2.119 2.034-2.119h8.307c1.611 0 2.713.254 3.306.848.678.509 1.187 1.695 1.695 3.306l14.241 56.117 13.224-56.117c.424-1.695.932-2.797 1.611-3.306.678-.509 1.865-.848 3.391-.848h6.781c1.611 0 2.713.254 3.391.848.678.509 1.272 1.695 1.611 3.306l13.393 56.795 14.665-56.795c.509-1.695 1.102-2.797 1.695-3.306.678-.509 1.78-.848 3.306-.848h7.883c1.356 0 2.119.678 2.119 2.119 0 .424-.085.848-.17 1.356-.085.509-.254 1.187-.593 2.119l-20.429 65.526c-.509 1.695-1.102 2.797-1.78 3.306-.678.509-1.78.848-3.221.848h-7.29c-1.611 0-2.713-.254-3.391-.848-.678-.593-1.272-1.695-1.611-3.391l-13.139-54.675-13.054 54.591c-.424 1.695-.932 2.797-1.611 3.391-.678.593-1.865.848-3.391.848h-7.29zm108.927 2.289c-4.408 0-8.816-.509-13.054-1.526-4.238-1.017-7.544-2.119-9.748-3.391-1.356-.763-2.289-1.611-2.628-2.374-.339-.763-.509-1.611-.509-2.374v-4.323c0-1.78.678-2.628 1.95-2.628.509 0 1.017.085 1.526.254.509.17 1.272.509 2.119.848 2.882 1.272 6.019 2.289 9.325 2.967 3.391.678 6.697 1.017 10.087 1.017 5.34 0 9.494-.932 12.376-2.797 2.882-1.865 4.408-4.577 4.408-8.053 0-2.374-.763-4.323-2.289-5.934-1.526-1.611-4.408-3.052-8.562-4.408l-12.291-3.815c-6.188-1.95-10.766-4.832-13.563-8.646-2.797-3.73-4.238-7.883-4.238-12.291 0-3.56.763-6.697 2.289-9.409 1.526-2.713 3.56-5.086 6.103-6.951 2.543-1.95 5.425-3.391 8.816-4.408 3.391-1.017 6.951-1.441 10.681-1.441 1.865 0 3.815.085 5.679.339 1.95.254 3.73.593 5.51.932 1.695.424 3.306.848 4.832 1.356 1.526.509 2.713 1.017 3.56 1.526 1.187.678 2.034 1.356 2.543 2.119.509.678.763 1.611.763 2.797v3.984c0 1.78-.678 2.713-1.95 2.713-.678 0-1.78-.339-3.221-1.017-4.832-2.204-10.257-3.306-16.275-3.306-4.832 0-8.646.763-11.274 2.374-2.628 1.611-3.984 4.069-3.984 7.544 0 2.374.848 4.408 2.543 6.019 1.695 1.611 4.832 3.221 9.325 4.662l12.037 3.815c6.103 1.95 10.511 4.662 13.139 8.138 2.628 3.475 3.899 7.46 3.899 11.868 0 3.645-.763 6.951-2.204 9.833-1.526 2.882-3.56 5.425-6.188 7.46-2.628 2.119-5.764 3.645-9.409 4.747-3.815 1.187-7.799 1.78-12.122 1.78z" fill="#252F3E"/><path d="M230.993 120.964c-27.889 20.599-68.408 31.534-103.248 31.534-48.826 0-92.821-18.056-126.05-48.064-2.628-2.374-.254-5.595 2.882-3.73 35.942 20.853 80.275 33.483 126.135 33.483 30.94 0 64.932-6.442 96.212-19.666 4.662-2.119 8.646 3.052 4.069 6.442zm11.613-13.224c-3.56-4.577-23.566-2.204-32.636-1.102-2.713.339-3.136-2.034-.678-3.815 15.936-11.189 42.13-7.968 45.181-4.238 3.052 3.815-.848 30.008-15.767 42.554-2.289 1.95-4.493.932-3.475-1.611 3.391-8.392 10.935-27.295 7.375-31.788z" fill="#f90"/></svg>