<svg width="256" height="215" viewBox="0 0 256 215" xmlns="http://www.w3.org/2000/svg"><g fill="none"><path d="M38.617 173.984v-16.363c0-2.149 1.344-3.877 3.57-3.877h.617c2.225 0 3.563 1.729 3.563 3.877v34.448c0 8.4-4.151 15.084-11.382 19.342-3.353 1.973-7.058 2.985-10.945 2.985h-1.537c-8.402 0-15.078-4.153-19.342-11.381-1.979-3.355-2.984-7.055-2.984-10.946v-1.535c0-8.403 4.153-15.083 11.379-19.348 3.356-1.981 7.056-2.985 10.948-2.985h1.537c5.686 0 10.51 2.204 14.578 5.784zm-30.693 17.316c0 6.068 2.941 10.63 8.258 13.539 2.15 1.177 4.484 1.809 6.937 1.809 5.956 0 10.373-2.81 13.421-7.857 1.417-2.348 2.077-4.916 2.077-7.648 0-5.26-2.49-9.365-6.729-12.414-2.57-1.848-5.463-2.775-8.618-2.775-6.492 0-11.163 3.279-13.968 9.106-.946 1.97-1.379 4.062-1.379 6.24zm65.324-23.1h1.074c8.978 0 15.806 4.355 20.133 12.192 1.73 3.135 2.656 6.556 2.656 10.141v1.535c0 8.4-4.142 15.093-11.385 19.343-3.353 1.967-7.057 2.984-10.943 2.984h-1.534c-8.402 0-15.079-4.153-19.342-11.381-1.979-3.355-2.986-7.055-2.986-10.946v-1.535c0-8.404 4.168-15.062 11.376-19.346 3.352-1.992 7.058-2.987 10.952-2.987zm-14.581 23.1c0 5.89 2.891 10.223 7.866 13.269 2.336 1.431 4.908 2.079 7.638 2.079 5.82 0 10.122-2.951 13.116-7.863 1.428-2.342 2.074-4.914 2.074-7.641 0-5.477-2.638-9.661-7.148-12.693-2.472-1.663-5.223-2.496-8.199-2.496-6.492 0-11.163 3.279-13.966 9.106-.948 1.97-1.381 4.062-1.381 6.24zm70.657-14.727c-1.17-.548-3.36-.73-4.625-.778-6.474-.244-11.158 3.402-13.906 9.113-.948 1.97-1.382 4.055-1.382 6.235 0 6.637 3.484 11.284 9.409 14.116 2.164 1.034 4.958 1.231 7.323 1.231 2.081 0 5.02-1.275 6.866-2.152l.32-.152h1.432l.158.032c1.763.366 3.093 1.484 3.093 3.38v.767c0 4.717-8.622 5.798-11.912 6.027-11.61.804-20.293-5.573-23.603-16.647-.575-1.922-.834-3.833-.834-5.837v-1.533c0-8.403 4.169-15.058 11.376-19.34 3.352-1.99 7.058-2.99 10.951-2.99h1.535c4.13 0 7.934 1.173 11.344 3.502l.281.194.177.292c.368.611.685 1.316.685 2.043v.767c0 1.978-1.48 3.041-3.266 3.386l-.148.026h-.458c-1.157 0-3.785-1.198-4.817-1.683zm25.134 5.247c3.009-3.014 6.03-6.022 9.085-8.986.852-.826 4.075-4.326 5.343-4.326h1.388l.158.032c1.767.367 3.092 1.487 3.092 3.386v.766c0 1.296-1.518 2.802-2.355 3.688-1.78 1.887-3.655 3.713-5.477 5.561l-9.361 9.503c4.031 4.04 8.058 8.084 12.056 12.155 1.106 1.126 2.212 2.253 3.301 3.395.385.405.953.909 1.276 1.471.347.525.56 1.118.56 1.751v.801l-.045.184c-.435 1.767-1.557 3.194-3.517 3.194h-.616c-1.282 0-2.73-1.451-3.609-2.279-1.809-1.706-3.557-3.5-5.33-5.243l-5.949-5.84v9.334c0 2.15-1.346 3.877-3.569 3.877h-.611c-2.225 0-3.569-1.728-3.569-3.877v-52.596c0-2.151 1.345-3.871 3.569-3.871h.611c2.223 0 3.569 1.72 3.569 3.871v24.048zm96.577-13.313h.769c2.324 0 3.875 1.566 3.875 3.876 0 3.208-3.067 4.029-5.72 4.029-3.48 0-6.802 2.107-9.201 4.47-2.992 2.949-4.301 6.726-4.301 10.878v18.759c0 2.151-1.342 3.876-3.57 3.876h-.611c-2.227 0-3.569-1.726-3.569-3.876v-19.836c0-7.617 3.708-13.835 9.889-18.196 3.692-2.606 7.919-3.981 12.439-3.981zm-55.075 37.176c2.82.984 6.035.844 8.928.34 1.479-.629 5.264-2.279 6.656-2.038l.217.036.2.099c.849.412 1.661.995 2.095 1.859 1.014 2.028.527 4.065-1.465 5.216l-.663.383c-7.351 4.243-15.168 3.655-22.495-.308-3.503-1.893-6.183-4.705-8.16-8.131l-.463-.801c-4.718-8.172-4.082-16.768 1.24-24.539 1.838-2.686 4.238-4.761 7.046-6.384l1.062-.613c6.922-3.996 14.341-3.723 21.45-.215 3.822 1.886 6.919 4.697 9.054 8.394l.383.666c1.55 2.686-.458 5.027-2.531 6.627-2.406 1.856-4.835 4.09-7.141 6.08-5.141 4.438-10.275 8.887-15.414 13.33zm-6.655-4.674c5.751-4.931 11.503-9.865 17.237-14.816 1.96-1.69 4.109-3.444 6.053-5.222-1.561-1.966-4.166-3.383-6.381-4.228-4.469-1.703-8.876-1.131-12.975 1.235-5.366 3.098-7.651 8.031-7.45 14.171.079 2.418.729 4.747 2.013 6.804.452.725.957 1.406 1.502 2.055zM147.488 45.732h22.866v23.375h11.562c5.339 0 10.831-.951 15.887-2.664 2.484-.842 5.273-2.015 7.724-3.489-3.228-4.214-4.876-9.536-5.361-14.781-.659-7.134.78-16.42 5.609-22.004l2.404-2.78 2.864 2.302c7.211 5.794 13.276 13.889 14.345 23.118 8.683-2.554 18.878-1.95 26.531 2.467l3.14 1.812-1.653 3.226c-6.473 12.633-20.005 16.546-33.235 15.854-19.797 49.308-62.898 72.653-115.157 72.653-26.999 0-51.77-10.093-65.876-34.047l-.231-.391-2.055-4.181c-4.768-10.544-6.352-22.095-5.277-33.637l.322-3.457h19.553v-23.375h22.865v-22.866h45.733v-22.866h27.44v45.732" fill="#364548"/><path d="M221.57 54.38c1.533-11.915-7.384-21.275-12.914-25.718-6.373 7.368-7.363 26.678 2.635 34.807-5.58 4.956-17.337 9.448-29.376 9.448h-146.545c-1.171 12.567 1.036 24.14 6.074 34.045l1.667 3.049c1.056 1.791 2.209 3.52 3.455 5.185h.001c6.025.387 11.579.521 16.661.408h.002c9.987-.221 18.136-1.399 24.312-3.54.92-.32 1.922.168 2.24 1.087.318.918-.169 1.921-1.087 2.24-.821.284-1.677.551-2.562.803l-.003.001c-4.863 1.388-10.077 2.323-16.805 2.738.399.006-.416.06-.418.061l-.747.059c-2.648.148-5.506.179-8.428.179-3.196 0-6.343-.061-9.862-.239l-.09.059c12.21 13.724 31.302 21.955 55.233 21.955 50.648 0 93.609-22.452 112.632-72.858 13.497 1.385 26.468-2.057 32.368-13.574-9.399-5.424-21.484-3.694-28.443-.197" fill="#22A0C8"/><path d="M221.57 54.38c1.533-11.915-7.384-21.275-12.914-25.718-6.373 7.368-7.363 26.678 2.635 34.807-5.58 4.956-17.337 9.448-29.376 9.448h-137.867c-.598 19.246 6.544 33.855 19.181 42.687h.002c9.987-.221 18.136-1.399 24.312-3.54.92-.32 1.922.168 2.24 1.087.318.918-.169 1.921-1.087 2.24-.821.284-1.677.551-2.562.803l-.003.001c-4.863 1.388-10.525 2.443-17.254 2.858l-.165-.155c17.237 8.842 42.23 8.81 70.885-2.197 32.131-12.343 62.029-35.86 82.89-62.757-.315.142-.621.288-.917.436" fill="#37B1D9"/><path d="M35.645 88.186c.911 6.732 2.88 13.035 5.8 18.776l1.667 3.049c1.056 1.791 2.209 3.52 3.455 5.185 6.026.387 11.581.521 16.664.408 9.987-.221 18.136-1.399 24.312-3.54.92-.32 1.922.168 2.24 1.087.318.918-.169 1.921-1.087 2.24-.821.284-1.677.551-2.562.803l-.003.001c-4.863 1.388-10.495 2.383-17.224 2.798l-.867.029c-2.647.149-5.476.239-8.398.239-3.195 0-6.463-.061-9.981-.239 12.21 13.724 31.421 21.985 55.352 21.985 43.36 0 81.084-16.458 102.979-52.822h-172.348" fill="#1B81A5"/><path d="M45.367 88.186c2.592 11.819 8.821 21.099 17.864 27.418 9.987-.221 18.136-1.399 24.312-3.54.92-.32 1.922.168 2.24 1.087.318.918-.169 1.921-1.087 2.24-.821.284-1.677.551-2.562.803l-.003.001c-4.863 1.388-10.615 2.383-17.343 2.798 17.236 8.84 42.157 8.713 70.81-2.293 17.334-6.66 34.017-16.574 48.984-28.515h-143.214" fill="#1D91B4"/><path d="M55.261 49.543h19.817v19.818h-19.817v-19.818zm1.651 1.652h1.564v16.516h-1.564v-16.516zm2.94 0h1.627v16.516h-1.627v-16.516zm3.002 0h1.627v16.516h-1.627v-16.516zm3.003 0h1.627v16.516h-1.627v-16.516zm3.003 0h1.627v16.516h-1.627v-16.516zm3.002 0h1.565v16.516h-1.565v-16.516zM78.126 26.677h19.819v19.817h-19.819v-19.817zm1.653 1.652h1.563v16.514h-1.563v-16.514zm2.94 0h1.625v16.514h-1.625v-16.514zm3.001 0h1.627v16.514h-1.627v-16.514zm3.003 0h1.627v16.514h-1.627v-16.514zm3.003 0h1.627v16.514h-1.627v-16.514zm3.002 0h1.566v16.514h-1.566v-16.514z" fill="#23A3C2"/><path d="M78.126 49.543h19.819v19.818h-19.819v-19.818zm1.653 1.652h1.563v16.516h-1.563v-16.516zm2.94 0h1.625v16.516h-1.625v-16.516zm3.001 0h1.627v16.516h-1.627v-16.516zm3.003 0h1.627v16.516h-1.627v-16.516zm3.003 0h1.627v16.516h-1.627v-16.516zm3.002 0h1.566v16.516h-1.566v-16.516z" fill="#34BBDE"/><path d="M100.993 49.543h19.818v19.818h-19.818v-19.818zm1.652 1.652h1.563v16.516h-1.563v-16.516zm2.94 0h1.627v16.516h-1.627v-16.516zm3.003 0h1.627v16.516h-1.627v-16.516zm3.003 0h1.627v16.516h-1.627v-16.516zm3.002 0h1.628v16.516h-1.628v-16.516zm3.003 0h1.564v16.516h-1.564v-16.516z" fill="#23A3C2"/><path d="M100.993 26.677h19.818v19.817h-19.818v-19.817zm1.652 1.652h1.563v16.514h-1.563v-16.514zm2.94 0h1.627v16.514h-1.627v-16.514zm3.003 0h1.627v16.514h-1.627v-16.514zm3.003 0h1.627v16.514h-1.627v-16.514zm3.002 0h1.628v16.514h-1.628v-16.514zm3.003 0h1.564v16.514h-1.564v-16.514zM123.859 49.543h19.818v19.818h-19.818v-19.818zm1.652 1.652h1.563v16.516h-1.563v-16.516zm2.94 0h1.627v16.516h-1.627v-16.516zm3.002 0h1.627v16.516h-1.627v-16.516zm3.003 0h1.627v16.516h-1.627v-16.516zm3.003 0h1.627v16.516h-1.627v-16.516zm3.002 0h1.564v16.516h-1.564v-16.516z" fill="#34BBDE"/><path d="M123.859 26.677h19.818v19.817h-19.818v-19.817zm1.652 1.652h1.563v16.514h-1.563v-16.514zm2.94 0h1.627v16.514h-1.627v-16.514zm3.002 0h1.627v16.514h-1.627v-16.514zm3.003 0h1.627v16.514h-1.627v-16.514zm3.003 0h1.627v16.514h-1.627v-16.514zm3.002 0h1.564v16.514h-1.564v-16.514z" fill="#23A3C2"/><path d="M123.859 3.811h19.818v19.818h-19.818v-19.818zm1.652 1.651h1.563v16.516h-1.563v-16.516zm2.94 0h1.627v16.516h-1.627v-16.516zm3.002 0h1.627v16.516h-1.627v-16.516zm3.003 0h1.627v16.516h-1.627v-16.516zm3.003 0h1.627v16.516h-1.627v-16.516zm3.002 0h1.564v16.516h-1.564v-16.516z" fill="#34BBDE"/><path d="M146.725 49.543h19.818v19.818h-19.818v-19.818zm1.651 1.652h1.565v16.516h-1.565v-16.516zm2.94 0h1.627v16.516h-1.627v-16.516zm3.003 0h1.627v16.516h-1.627v-16.516zm3.002 0h1.627v16.516h-1.627v-16.516zm3.004 0h1.626v16.516h-1.626v-16.516zm3.002 0h1.564v16.516h-1.564v-16.516z" fill="#23A3C2"/><path d="M96.704 101.492c3.019 0 5.467 2.449 5.467 5.468s-2.448 5.467-5.467 5.467c-3.02 0-5.468-2.448-5.468-5.467 0-3.019 2.448-5.468 5.468-5.468" fill="#D3ECEC"/><path d="M96.704 103.043c.5 0 .977.094 1.418.265-.477.276-.8.793-.8 1.384 0 .883.716 1.597 1.598 1.597.605 0 1.13-.336 1.402-.832.192.462.298.97.298 1.502 0 2.162-1.753 3.915-3.916 3.915-2.162 0-3.916-1.753-3.916-3.915 0-2.163 1.754-3.917 3.916-3.917M0 90.162h254.327c-5.538-1.405-17.521-3.302-15.545-10.56-10.069 11.652-34.353 8.174-40.481 2.429-6.825 9.898-46.555 6.136-49.326-1.575-8.556 10.041-35.067 10.041-43.623 0-2.772 7.711-42.501 11.473-49.327 1.575-6.128 5.746-30.41 9.223-40.48-2.429 1.976 7.257-10.007 9.155-15.546 10.56" fill="#364548"/><path d="M111.237 140.89c-13.54-6.425-20.972-15.159-25.107-24.694-5.029 1.436-11.075 2.353-18.099 2.747-2.646.148-5.43.224-8.351.224-3.368 0-6.916-.1-10.642-.297 12.417 12.409 27.692 21.964 55.975 22.138 2.088 0 4.161-.041 6.224-.118" fill="#BDD9D7"/><path d="M91.16 124.994c-1.873-2.543-3.691-5.739-5.026-8.799-5.03 1.436-11.077 2.354-18.103 2.749 4.825 2.619 11.727 5.047 23.129 6.051" fill="#D3ECEC"/></g></svg>