<svg width="256" height="244" viewBox="0 0 256 244" xmlns="http://www.w3.org/2000/svg" preserveAspectRatio="xMidYMid"><defs><linearGradient x1="49.997%" y1="-19.516%" x2="49.997%" y2="129.625%" id="a"><stop stop-color="#0994DC" offset="0%"/><stop stop-color="#66CEF5" offset="35.001%"/><stop stop-color="#66CEF5" offset="35.001%"/><stop stop-color="#127BCA" offset="84.616%"/><stop stop-color="#127BCA" offset="84.616%"/><stop stop-color="#127BCA" offset="100%"/></linearGradient><linearGradient x1="50.001%" y1="-19.516%" x2="50.001%" y2="129.624%" id="b"><stop stop-color="#0E76BC" offset="0%"/><stop stop-color="#36AEE8" offset="36%"/><stop stop-color="#36AEE8" offset="36%"/><stop stop-color="#00ADEF" offset="84.616%"/><stop stop-color="#00ADEF" offset="84.616%"/><stop stop-color="#00ADEF" offset="100%"/></linearGradient><linearGradient x1="49.999%" y1="110.922%" x2="49.999%" y2="-6.214%" id="c"><stop stop-color="#1C63B7" offset="0%"/><stop stop-color="#33BDF2" offset="50%"/><stop stop-color="#33BDF2" stop-opacity=".42" offset="100%"/></linearGradient><linearGradient x1="50.001%" y1="-19.515%" x2="50.001%" y2="129.627%" id="d"><stop stop-color="#166AB8" offset="0%"/><stop stop-color="#36AEE8" offset="39.999%"/><stop stop-color="#36AEE8" offset="39.999%"/><stop stop-color="#0798DD" offset="84.616%"/><stop stop-color="#0798DD" offset="84.616%"/><stop stop-color="#0798DD" offset="100%"/></linearGradient><linearGradient x1="49.999%" y1="-19.521%" x2="49.999%" y2="129.627%" id="e"><stop stop-color="#124379" offset="0%"/><stop stop-color="#1487CB" offset="39%"/><stop stop-color="#1487CB" offset="39%"/><stop stop-color="#165197" offset="78.023%"/><stop stop-color="#165197" offset="78.023%"/><stop stop-color="#165197" offset="100%"/></linearGradient><linearGradient x1="0%" y1="50.001%" y2="50.001%" id="f"><stop stop-color="#33BDF2" stop-opacity=".698" offset="0%"/><stop stop-color="#1DACD8" offset="100%"/></linearGradient><linearGradient x1="50.01%" y1="94.686%" x2="50.01%" y2="-3.025%" id="g"><stop stop-color="#136AB4" offset="0%"/><stop stop-color="#59CAF5" stop-opacity=".549" offset="60%"/><stop stop-color="#59CAF5" stop-opacity=".235" offset="100%"/></linearGradient><linearGradient x1="-.001%" y1="50%" x2="99.999%" y2="50%" id="h"><stop stop-color="#05A1E6" stop-opacity=".247" offset="0%"/><stop stop-color="#05A1E6" offset="100%"/></linearGradient><linearGradient x1="49.998%" y1="124.314%" x2="49.998%" y2="-9.421%" id="i"><stop stop-color="#318ED5" offset="0%"/><stop stop-color="#38A7E4" offset="100%"/></linearGradient><linearGradient x1="49.999%" y1="91.2%" x2="49.999%" y2="-76.785%" id="j"><stop stop-color="#05A1E6" offset="0%"/><stop stop-color="#05A1E6" stop-opacity=".549" offset="100%"/></linearGradient><linearGradient x1="50%" y1="100.01%" x2="50%" y2=".01%" id="k"><stop stop-color="#1959A6" offset="0%"/><stop stop-color="#05A1E6" offset="50%"/><stop stop-color="#05A1E6" offset="50%"/><stop stop-color="#7EC5EA" offset="91.759%"/><stop stop-color="#7EC5EA" offset="100%"/></linearGradient><linearGradient x1="59.804%" y1="94.568%" x2="38.471%" y2="5.755%" id="l"><stop stop-color="#165096" offset="0%"/><stop stop-color="#0D82CA" offset="100%"/></linearGradient><linearGradient x1="49.995%" y1="76.998%" x2="49.995%" y2="-3.299%" id="m"><stop stop-color="#05A1E6" offset="0%"/><stop stop-color="#0495D6" offset="87.363%"/><stop stop-color="#0495D6" offset="100%"/></linearGradient><linearGradient x1="65.263%" y1="-4.161%" x2="34.263%" y2="105.844%" id="n"><stop stop-color="#38A7E4" stop-opacity=".329" offset="0%"/><stop stop-color="#0E88D3" offset="96.153%"/><stop stop-color="#0E88D3" offset="96.153%"/><stop stop-color="#0E88D3" offset="100%"/></linearGradient><linearGradient x1="50.017%" y1="-.296%" x2="50.017%" y2="101.882%" id="o"><stop stop-color="#168CD4" offset="0%"/><stop stop-color="#1C87CC" offset="50%"/><stop stop-color="#154B8D" offset="100%"/></linearGradient><linearGradient x1="16.674%" y1="205.565%" x2="87.813%" y2="-19.836%" id="p"><stop stop-color="#97D6EE" offset="0%"/><stop stop-color="#55C1EA" offset="70.329%"/><stop stop-color="#55C1EA" offset="100%"/></linearGradient><linearGradient x1="6.89%" y1="6.3%" x2="75.783%" y2="116.771%" id="q"><stop stop-color="#7ACCEC" offset="0%"/><stop stop-color="#3FB7ED" offset="100%"/></linearGradient><linearGradient x1="49.997%" y1="6.363%" x2="49.997%" y2="127.961%" id="r"><stop stop-color="#1DA7E7" offset="0%"/><stop stop-color="#37ABE7" stop-opacity="0" offset="100%"/></linearGradient></defs><path d="M214.269 128.006c0-.429-.118-.736-.36-.937-.268-.216-.732-.331-1.378-.331h-.928v2.552h1.121c1.035 0 1.546-.429 1.546-1.284zm1.448 5.321h-1.276l-.814-1.795c-.413-.9-.855-1.35-1.337-1.35h-.687v3.145h-1.051v-7.484h2.106c.937 0 1.64.203 2.123.626.409.364.613.83.613 1.411 0 .515-.167.949-.503 1.308-.327.364-.798.61-1.399.736v.032c.417.098.834.556 1.239 1.382l.986 1.992v-.004zm2.331-3.669c0-1.472-.503-2.715-1.505-3.701-1.006-.985-2.233-1.48-3.681-1.48-1.493 0-2.736.495-3.722 1.489-.986.998-1.476 2.233-1.476 3.693 0 1.493.511 2.74 1.525 3.734 1.002.994 2.229 1.484 3.672 1.484 1.435 0 2.662-.495 3.672-1.501 1.01-.99 1.513-2.233 1.513-3.717zm.707-.032c0 1.653-.568 3.039-1.709 4.155-1.141 1.125-2.54 1.685-4.213 1.685-1.685 0-3.083-.552-4.196-1.636-1.112-1.1-1.664-2.482-1.664-4.159 0-1.64.564-3.018 1.693-4.151 1.129-1.129 2.536-1.693 4.217-1.693 1.648 0 3.03.54 4.151 1.615 1.149 1.104 1.722 2.495 1.722 4.183zM58.799 150.495h-3.627v-20.759c0-1.64.108-3.636.301-5.991h-.082c-.34 1.378-.65 2.376-.924 2.994l-10.543 23.756h-1.767l-10.564-23.585c-.298-.659-.609-1.718-.924-3.165h-.079c.111 1.239.173 3.247.173 6.032v20.718h-3.497v-30.913h4.785l9.484 21.556c.716 1.624 1.178 2.859 1.403 3.701h.151c.617-1.689 1.108-2.957 1.48-3.791l9.688-21.466h4.539v30.913h.002zM69.957 150.494h-3.525v-22.076h3.525v22.076zm.61-29.989c0 .65-.229 1.194-.683 1.64-.446.446-.998.671-1.644.671-.63 0-1.178-.216-1.627-.646-.45-.433-.671-.986-.671-1.665 0-.638.222-1.182.671-1.623.45-.442.998-.654 1.627-.654.646 0 1.198.213 1.644.654.454.442.683.985.683 1.623zM91.988 149.472c-1.693 1.039-3.713 1.554-6.049 1.554-3.165 0-5.713-1.051-7.66-3.149-1.889-2.037-2.842-4.666-2.842-7.889 0-3.616 1.035-6.543 3.12-8.768 2.074-2.229 4.863-3.341 8.372-3.341 1.918 0 3.619.376 5.108 1.121v3.628c-1.648-1.158-3.39-1.73-5.259-1.73-2.249 0-4.077.785-5.496 2.352-1.477 1.603-2.225 3.746-2.225 6.421 0 2.568.683 4.601 2.041 6.102 1.362 1.493 3.174 2.241 5.46 2.241 1.93 0 3.738-.634 5.431-1.898v3.357zM108.849 131.999c-.622-.478-1.517-.712-2.699-.712-1.435 0-2.642.642-3.619 1.938-1.108 1.448-1.66 3.452-1.66 6.012v11.255h-3.533v-22.076h3.533v4.552h.085c.52-1.611 1.321-2.851 2.393-3.73 1.002-.802 2.135-1.207 3.382-1.207.941 0 1.64.101 2.118.301v3.664l.001.002zM128.543 139.496c0-2.826-.638-4.985-1.914-6.466-1.239-1.423-2.969-2.135-5.198-2.135-2.196 0-3.959.72-5.276 2.159-1.394 1.538-2.09 3.709-2.09 6.527 0 2.642.663 4.715 2 6.196 1.329 1.489 3.12 2.233 5.366 2.233 2.323 0 4.102-.756 5.32-2.261 1.194-1.472 1.791-3.554 1.791-6.253m3.623-.124c0 3.517-.994 6.343-2.973 8.462-1.987 2.127-4.662 3.19-8.024 3.19-3.313 0-5.951-1.063-7.885-3.19-1.894-2.049-2.846-4.756-2.846-8.122 0-3.84 1.075-6.801 3.235-8.903 1.996-1.951 4.666-2.932 8.012-2.932 3.292 0 5.865 1.026 7.717 3.059 1.836 2.045 2.765 4.858 2.765 8.437M149.69 144.588c0 1.808-.675 3.304-2.028 4.499-1.476 1.292-3.505 1.938-6.057 1.938-2.09 0-3.922-.437-5.476-1.329v-3.799c1.73 1.407 3.64 2.115 5.738 2.115 2.797 0 4.2-1.031 4.2-3.084 0-.863-.308-1.579-.928-2.131-.622-.564-1.828-1.239-3.623-2.028-1.849-.81-3.165-1.64-3.942-2.503-.932-1.022-1.403-2.351-1.403-3.987 0-1.832.732-3.358 2.18-4.572 1.452-1.219 3.317-1.828 5.607-1.828 1.755 0 3.325.343 4.719 1.035v3.558c-1.456-1.051-3.12-1.575-5.01-1.575-1.17 0-2.11.291-2.81.859-.707.581-1.063 1.321-1.063 2.225 0 .978.298 1.738.888 2.282.523.503 1.636 1.117 3.313 1.832 1.885.789 3.247 1.607 4.077 2.446 1.076 1.059 1.619 2.409 1.619 4.049M171.285 139.496c0-2.826-.638-4.985-1.918-6.466-1.235-1.423-2.969-2.135-5.194-2.135-2.196 0-3.959.72-5.284 2.159-1.39 1.538-2.082 3.709-2.082 6.527 0 2.642.663 4.715 1.988 6.196 1.346 1.489 3.137 2.233 5.378 2.233 2.327 0 4.102-.756 5.32-2.261 1.194-1.472 1.791-3.554 1.791-6.253m3.632-.124c0 3.517-1.002 6.343-2.985 8.462-1.979 2.127-4.654 3.19-8.016 3.19-3.316 0-5.955-1.063-7.889-3.19-1.894-2.049-2.846-4.756-2.846-8.122 0-3.84 1.084-6.801 3.231-8.903 1.996-1.951 4.67-2.932 8.02-2.932 3.292 0 5.861 1.026 7.709 3.059 1.84 2.045 2.777 4.858 2.777 8.437"/><path d="M190.486 120.917c-.695-.384-1.468-.581-2.347-.581-2.474 0-3.701 1.558-3.701 4.679v3.403h5.174v2.994h-5.174v19.082h-3.537v-19.082h-3.754v-2.994h3.754v-3.578c0-2.43.744-4.335 2.257-5.709 1.297-1.194 2.883-1.787 4.768-1.787 1.092 0 1.943.131 2.56.384v3.19zM204.433 150.271c-.834.479-1.947.716-3.321.716-3.852 0-5.778-2.172-5.778-6.515v-13.058h-3.787v-2.998h3.787v-5.386c1.129-.356 2.302-.744 3.542-1.145v6.531h5.558v2.998h-5.558v12.457c0 1.48.242 2.54.748 3.153.511.634 1.346.945 2.523.945.879 0 1.64-.236 2.286-.712v3.014zM13.414 236.653c0 1.73-.617 3.227-1.865 4.49-1.243 1.26-2.752 1.894-4.523 1.894-1.73 0-3.202-.634-4.409-1.894-1.207-1.264-1.808-2.761-1.808-4.49 0-1.779.601-3.28 1.808-4.523 1.206-1.248 2.679-1.865 4.409-1.865 1.771 0 3.28.626 4.523 1.889 1.248 1.264 1.865 2.765 1.865 4.499"/><path d="M92.531 241.737h-11.525l-41.833-64.604c-.978-1.554-1.82-3.243-2.536-5.088h-.344c.298 1.73.45 5.443.45 11.132v58.559h-9.5v-81.052h12.33l40.581 63.586c1.616 2.523 2.719 4.331 3.28 5.419h.226c-.376-2.331-.572-6.306-.572-11.917v-57.087h9.443v81.052h-.001zM153.436 241.737h-42.958v-81.052h41.093v8.588h-31.6v26.963h29.282v8.593h-29.282v28.317h33.465v8.592zM218.595 169.274h-23.347v72.464h-9.496v-72.464h-23.393v-8.592h56.236v8.592z"/><path d="M89.31 20.689c9.165 28.026 12.637 78.022 39.436 78.022 2.041 0 4.102-.2 6.171-.593-24.362-5.68-27.249-55.133-42.115-80.742-1.166 1.059-2.323 2.164-3.493 3.313" fill="url(#a)"/><path d="M92.802 17.376c14.866 25.609 17.753 75.061 42.115 80.742 1.914-.352 3.832-.883 5.754-1.554-21.867-10.715-27.912-58.735-44.794-81.854-1.022.851-2.049 1.743-3.075 2.666" fill="url(#b)"/><path d="M114.221 2.145c-2.037 0-4.102.2-6.175.593-5.423 1.022-10.931 3.357-16.485 6.891 1.517 1.497 2.961 3.21 4.318 5.079 5.648-4.687 11.259-8.151 16.85-10.232 2.098-.777 4.188-1.362 6.286-1.746-1.513-.385-3.108-.585-4.793-.585" fill="#14559A"/><path d="M157.741 86.687c2.237-1.779 4.478-3.746 6.723-5.893-9.312-27.896-12.645-78.607-39.633-78.607-1.93 0-3.877.18-5.82.54 24.583 6.114 27.732 59.598 38.729 83.96" fill="url(#c)"/><path d="M119.013 2.728c-1.513-.384-3.108-.585-4.793-.585l10.613.039c-1.93 0-3.877.18-5.82.544" fill="#3092C4"/><path d="M157.27 92.613c-1.055-1.006-2.057-2.11-3.043-3.288-4.54 3.214-9.063 5.652-13.557 7.239 1.599.781 3.276 1.362 5.055 1.722 1.378.281 2.805.425 4.306.425 5.043 0 9.03-.597 12.424-2.225-1.869-1.01-3.582-2.319-5.186-3.873" fill="#1969BC"/><path d="M112.727 4.481c22.019 11.516 23.933 63.667 41.502 84.844 1.178-.83 2.343-1.709 3.509-2.638-10.997-24.362-14.142-77.85-38.721-83.96-2.098.393-4.192.974-6.29 1.755" fill="url(#d)"/><path d="M95.878 14.709c16.882 23.119 22.927 71.139 44.794 81.854 4.495-1.587 9.018-4.024 13.557-7.239-17.569-21.176-19.483-73.327-41.502-84.844-5.591 2.077-11.201 5.541-16.849 10.228" fill="url(#e)"/><path d="M78.508 20.014c-2.646 5.983-5.349 13.847-8.617 24.113 6.498-9.157 12.976-17.046 19.418-23.438-.887-2.728-1.84-5.243-2.867-7.484-2.634 2.016-5.288 4.286-7.934 6.809" fill="url(#f)"/><path d="M88.789 11.479c-.777.556-1.558 1.125-2.343 1.726 1.026 2.241 1.975 4.756 2.863 7.484 1.169-1.145 2.331-2.253 3.492-3.313-1.247-2.143-2.572-4.122-4.012-5.897" fill="#2B74B1"/><path d="M91.561 9.629c-.924.585-1.844 1.202-2.773 1.848 1.44 1.775 2.765 3.754 4.016 5.902 1.027-.928 2.053-1.824 3.075-2.671-1.358-1.869-2.801-3.583-4.319-5.079" fill="#125A9E"/><path d="M241.747.011c-12.453 48.024-38.463 86.598-60.269 96.323h-.041c-.397.18-.789.344-1.178.503l-.143.056-.335.128-.151.062-.544.193-.225.079-.27.088-.262.092-.233.079-.466.141-.196.053-.315.085-.213.059-.344.088-.417.092c.986.364 2.012.548 3.12.548 20.677 0 41.526-37.056 76.022-98.679h-13.545l.005.011z" fill="url(#g)"/><path d="M65.401 4.094l.037-.032.049-.032h.026l.335-.128.066-.032.086-.036.36-.128h.019c.274-.082.528-.183.793-.278l.118-.032.339-.101.155-.049.344-.101.131-.036c.38-.105.757-.203 1.137-.294l.155-.036.331-.066.164-.049.335-.062h.078l.691-.128h.139l.319-.056.18-.032.307-.046.168-.032c.241-.032.491-.045.744-.066-.716-.069-1.452-.115-2.2-.115-23.286 0-55.37 43.207-69.822 99.161h2.785c4.625-8.249 8.78-16.052 12.58-23.376 10.122-39.633 30.738-66.661 49.051-73.822" fill="url(#h)"/><path d="M78.509 20.014c2.646-2.523 5.3-4.793 7.934-6.809-.601-1.317-1.223-2.536-1.889-3.652-2.131 2.585-4.077 5.995-6.044 10.461M80.422 4.422c1.521 1.276 2.883 3.031 4.131 5.133.393-.483.789-.928 1.202-1.346-1.73-1.615-3.599-2.94-5.627-3.938l.249.118.046.032" fill="#0D82CA"/><path d="M16.35 77.915c21.233-40.917 31.294-66.813 49.051-73.822-18.309 7.165-38.929 34.194-49.051 73.822" fill="url(#i)"/><path d="M85.753 8.208c-.413.421-.805.863-1.202 1.346.667 1.116 1.288 2.331 1.894 3.652.785-.601 1.566-1.17 2.343-1.726-.961-1.186-1.975-2.286-3.035-3.272" fill="#127BCA"/><path d="M25.99 101.107l-.384.046h-.074l-.327.032h-.053c-.266.032-.528.032-.781.053h-.082c21.491-.601 31.314-11.361 36.189-26.967 3.705-11.831 6.748-21.798 9.414-30.161-9.001 12.67-18.044 27.773-27.135 44.692-4.384 8.155-11.05 11.561-16.768 12.29" fill="url(#j)"/><path d="M25.99 101.099c5.717-.728 12.383-4.131 16.768-12.29 9.091-16.915 18.138-32.022 27.131-44.692 3.272-10.269 5.971-18.129 8.621-24.113-17.925 17.062-35.919 45.432-52.519 81.085" fill="url(#k)"/><path d="M16.349 77.916c-3.799 7.325-7.954 15.128-12.58 23.376h8.102c1.071-8.192 2.593-16.003 4.478-23.372" fill="#05A1E6"/><path d="M72.264 2.326l-.172.032-.303.043-.18.032-.319.056-.139.032-.691.121h-.078l-.335.066-.168.045-.327.066-.155.036c-.38.092-.757.19-1.137.294l-.131.039-.343.101-.155.045-.339.101-.123.032c-.262.098-.519.196-.789.278l-.36.124-.151.062-.335.124-.11.053c-17.757 7.01-27.818 32.905-49.051 73.822-1.885 7.37-3.411 15.181-4.478 23.372h1.137c3.202 0 4.106-.032 7.791-.032h3.569c.254-.032.515-.032.781-.053h.049l.327-.032h.078l.384-.046c16.6-35.653 34.594-64.023 52.519-81.085 1.971-4.466 3.914-7.877 6.04-10.457-1.243-2.102-2.605-3.861-4.126-5.137l-.045-.032-.253-.121-.249-.128-.245-.118-.286-.121-.225-.098-.47-.196-.201-.075-.352-.141-.188-.062-.487-.167h-.041l-.564-.16-.127-.039-.474-.134-.11-.032c-.384-.101-.781-.183-1.182-.258l-.123-.032-.511-.082-.102-.032-.605-.079h-.106l-.466-.053-.744.069" fill="url(#l)"/><path d="M193.105 26.598c-4.086 13.087-7.394 23.884-10.273 32.766 11.21-15.426 22.252-34.832 32.766-57.226-12.265 3.852-18.808 12.67-22.493 24.46" fill="url(#m)"/><path d="M183.187 95.516c-.573.291-1.145.568-1.709.818 21.806-9.725 47.816-48.299 60.269-96.323h-2.523c-28.611 51.108-37.813 85.322-56.036 95.505" fill="url(#n)"/><path d="M168.948 91.223c4.744-5.791 8.608-15.634 13.884-31.858-6.086 8.359-12.212 15.545-18.342 21.405l-.032.053c1.338 4.008 2.805 7.545 4.478 10.4" fill="#079AE1"/><path d="M168.948 91.223c-1.616 1.971-3.325 3.472-5.227 4.585-.417.242-.838.47-1.268.679 2.008 1.084 4.2 1.808 6.654 2.098.36.036.716.069 1.088.095h.066c.167 0 .344 0 .524.032h1.774l.2-.032c.128 0 .262 0 .393-.032h.193l.425-.046h.032l.131-.032.454-.069h.134l.511-.085h.081c.344-.066.679-.131 1.018-.216-2.814-1.031-5.169-3.46-7.198-6.92" fill="#1969BC"/><path d="M128.746 98.711c2.041 0 4.102-.2 6.171-.597 1.914-.347 3.832-.879 5.754-1.55 1.599.781 3.276 1.362 5.051 1.722 1.378.281 2.809.425 4.311.425h-21.287zM150.033 98.711c5.038 0 9.03-.597 12.42-2.225 2.008 1.084 4.2 1.808 6.654 2.098.36.036.716.069 1.088.095h.066c.167 0 .344 0 .524.032h.611-21.377l.014-.001z" fill="#1E5CB3"/><path d="M171.408 98.711h1.166l.2-.032c.128 0 .262 0 .397-.032h.194l.421-.045h.036l.128-.032.454-.069.141-.032.511-.082h.081c.344-.066.679-.131 1.018-.216.985.364 2.012.548 3.12.548l-7.86.032-.006-.039z" fill="#1D60B5"/><path d="M164.471 80.823v-.032c-2.245 2.147-4.486 4.114-6.723 5.893-1.17.928-2.335 1.808-3.513 2.638.985 1.178 1.988 2.282 3.043 3.288 1.603 1.554 3.316 2.863 5.186 3.873.425-.209.851-.438 1.264-.679 1.906-1.112 3.615-2.613 5.231-4.584-1.673-2.855-3.141-6.392-4.478-10.4" fill="#175FAB"/><path d="M231.232.011h-12.700999999999999c-.687.032-1.353.056-2.012.098-.311.667-.63 1.334-.937 2.004-10.514 22.394-21.556 41.8-32.766 57.226-5.272 16.223-9.14 26.067-13.884 31.858 2.028 3.46 4.388 5.893 7.194 6.924l.221-.049h.045l.155-.032.352-.088.209-.059.315-.082.196-.056.466-.141.233-.079.262-.095.27-.085.221-.082.548-.193.151-.056.335-.131.143-.053c.384-.16.781-.324 1.178-.503h.041c.564-.249 1.137-.528 1.705-.818 18.228-10.183 27.429-44.397 56.04-95.505h-7.991l.009-.004z" fill="url(#o)"/><path d="M73.009 2.257l.131.032c.11 0 .221 0 .331.036h.111l.605.079.102.032.511.085.127.032c.393.079.793.16 1.178.262l.106.032.474.134.131.04c.192.049.372.098.56.16l.041.032.491.167.188.062.352.144.2.069.466.196.229.098.282.121.249.118.25.128c2.028.998 3.897 2.327 5.627 3.939.638-.671 1.305-1.272 1.996-1.812-3.783-2.683-8.069-4.212-13.013-4.212-.573 0-1.145.032-1.726.075" fill="#7DCBEC"/><path d="M85.753 8.208c1.059.985 2.073 2.086 3.034 3.272.928-.646 1.849-1.268 2.773-1.849-1.211-1.211-2.487-2.298-3.816-3.235-.691.536-1.354 1.141-1.992 1.812" fill="#5EC5ED"/><path d="M73.008 2.255c.581-.049 1.153-.07 1.726-.07 4.944 0 9.23 1.53 13.013 4.208 3.991-3.149 8.817-4.249 15.52-4.249h-32.459c.748 0 1.48.045 2.2.11" fill="url(#p)"/><path d="M103.267 2.146c-6.703 0-11.529 1.1-15.52 4.249 1.325.937 2.601 2.024 3.812 3.235 5.558-3.533 11.062-5.873 16.489-6.895 2.069-.389 4.135-.589 6.171-.589h-10.952z" fill="url(#q)"/><path d="M182.831 59.372c2.883-8.891 6.183-19.683 10.277-32.774 3.689-11.794 10.22-20.612 22.485-24.46.324-.659.63-1.338.945-2.004-19.994 1.198-29.339 11.369-34.042 26.432-8.224 26.296-13.205 43.342-18.003 54.204 6.126-5.856 12.253-13.046 18.338-21.397" fill="url(#r)"/><path d="M212.165 91.706h-2.266v7.042h-.924v-7.042h-2.274v-.838h5.464v.838zM221.442 98.747h-.92v-5.292c0-.417.032-.928.075-1.53-.095.36-.173.61-.245.769l-2.683 6.053h-.45l-2.691-6.007c-.079-.167-.157-.438-.242-.814h-.032c.032.317.043.83.043 1.542v5.28h-.883v-7.881h1.219l2.417 5.5c.183.413.298.732.356.945h.036c.16-.433.291-.757.381-.969l2.466-5.476h1.161v7.881h-.006z"/></svg>