<svg width="256" height="236" viewBox="0 0 256 236" xmlns="http://www.w3.org/2000/svg" preserveAspectRatio="xMidYMid"><path d="M128.075 236.075l47.104-144.97h-94.208l47.104 144.97z" fill="#E24329"/><path d="M128.075 236.074l-47.104-144.97h-66.015l113.119 144.97z" fill="#FC6D26"/><path d="M14.956 91.104l-14.314 44.055c-1.306 4.018.124 8.42 3.543 10.903l123.891 90.012-113.119-144.97z" fill="#FCA326"/><path d="M14.956 91.105h66.015l-28.371-87.314c-1.459-4.493-7.815-4.492-9.275 0l-28.37 87.314z" fill="#E24329"/><path d="M128.075 236.074l47.104-144.97h66.015l-113.119 144.97z" fill="#FC6D26"/><path d="M241.194 91.104l14.314 44.055c1.306 4.018-.124 8.42-3.543 10.903l-123.891 90.012 113.119-144.97z" fill="#FCA326"/><path d="M241.194 91.105h-66.015l28.371-87.314c1.459-4.493 7.815-4.492 9.275 0l28.37 87.314z" fill="#E24329"/></svg>