<svg width="256" height="256" viewBox="0 0 256 256" xmlns="http://www.w3.org/2000/svg" preserveAspectRatio="xMidYMid"><g fill="#F35045"><path d="M160.445 208c2 2.889 3.222 2.667 4.777 2 1.555-.667 81.556-27.667 84-28.555 2.444-.889 1.667-1.667.889-2.889-.777-1.223-27.445-37.444-28.778-39.555-1.333-2.111-2-1.667-4.111-1l-84.805 22.067s26.028 45.045 28.028 47.933zM256 171.115v-42.399c-9.541 2.543-21.609 5.756-26.373 7.023 7.187 9.616 18.423 24.665 26.373 35.375zM229.545 83.521c-1.307.297-30.247 5.527-32.03 5.764-1.783.237-1.189 1.248-.475 2.258l25.467 34.943s31.139-7.725 33.041-8.141l.452-.107v-4.627c-5.66-7.177-21.081-26.718-22.413-28.544-1.604-2.199-2.734-1.843-4.041-1.546zM47.456 28.634c6.267-.285 6.839 1.141 9.592 5.224l69.171 115.642 86.973-20.835c-4.819-6.831-26.695-37.846-28.809-40.805-2.377-3.328.059-4.873 3.922-5.527 3.863-.653 37.14-6.239 39.993-6.655 2.853-.416 5.111-1.426 9.746 4.16 2.371 2.858 10.412 12.87 17.957 22.255v-54.092c0-13.222-4.695-24.528-14.083-33.917-9.389-9.389-20.695-14.083-33.917-14.083h-160c-13.222 0-24.528 4.695-33.917 14.083-5.385 5.385-9.218 11.404-11.515 18.051 15.678-1.288 40.501-3.301 44.887-3.5zM168.289 223.564c-7.334 2.222-10.623 3.325-15.4-3.342-3.578-4.993-22.927-39.843-32.414-57.023-17.955 4.703-50.814 13.279-60.289 15.555-9.249 2.222-13.198-3.323-14.717-6.741-1.065-2.397-28.179-60.854-45.468-98.363v134.349c0 13.223 4.695 24.527 14.083 33.917 9.389 9.389 20.695 14.083 33.917 14.083h160c13.222 0 24.528-4.695 33.917-14.083 9.389-9.389 14.083-20.694 14.083-33.917v-15.781c-19.641 7.184-82.77 29.848-87.711 31.345zM60.412 165.288c2.599-.595 51.313-12.253 52.353-12.476 1.04-.223 1.708-.817.594-2.747-1.114-1.93-64.933-112.089-64.933-112.089-.589-1.011-.421-1.348-2.022-1.264-1.427.075-37.538 3.297-45.899 3.996-.247 1.739-.395 3.517-.461 5.331 8.487 17.375 57.199 117.837 57.472 118.655.297.891.297 1.189 2.896.595z"/></g></svg>