<svg width="512" height="180" viewBox="0 0 512 180" xmlns="http://www.w3.org/2000/svg" preserveAspectRatio="xMidYMid"><g fill="#c00"><path d="M219.115 150.634s22.569-1.935 22.569-31.081c0-29.147-27.341-31.855-27.341-31.855h-49.265v91.954h24.762v-22.182l21.409 22.182h36.627l-28.76-29.018zm-9.544-18.829h-19.732v-21.022h19.861s5.546 2.063 5.546 10.446-5.675 10.575-5.675 10.575zm93.243-43.462h-25.149c-17.926 0-23.988 16.25-23.988 23.988v67.321h25.149v-16.121h23.601v16.121h24.375v-67.321c0-19.603-17.797-23.988-23.988-23.988zm-.387 49.137h-23.73v-22.311s0-5.03 7.867-5.03h8.641c6.964 0 7.093 5.03 7.093 5.03v22.311h.129zm35.853-49.137h26.18v91.309h-26.18v-91.309zm62.936 67.708v-67.708h-26.051v91.309h61.259v-23.601h-35.208zm43.849.258v23.343h42.172c8.641 0 23.472-6.319 23.988-23.988v-9.028c0-15.089-12.381-23.988-23.988-23.988h-21.022v-10.833h41.656v-23.472h-39.98c-10.317 0-24.117 8.512-24.117 24.375v8.125c0 15.863 13.671 23.988 24.117 23.988 29.018.129-6.964 0 19.861 0v11.349l-42.688.129zM9.028 179.522h101.884s-19.474-88.858 45.01-124.84c14.057-6.835 58.809-32.371 132.062 21.795 2.321-1.935 4.514-3.482 4.514-3.482s-67.063-66.934-141.735-59.454c-37.529 3.353-83.7 37.529-110.783 82.668s-30.952 83.313-30.952 83.313zm212.28-158.759l.516-8.641c-1.161-.645-4.385-2.192-12.51-4.514l-.516 8.512c4.256 1.419 8.383 2.966 12.51 4.643zm-12.252 27.341l-.516 8.125c4.256.129 8.512.645 12.768 1.548l.516-7.996c-4.385-.903-8.641-1.419-12.768-1.677zm-47.718-40.238h1.29l-2.579-7.867c-3.998 0-8.125.258-12.381.774l2.45 7.609c3.74-.387 7.48-.516 11.22-.516zm6.19 47.46l2.966 8.899c3.74-1.806 7.48-3.353 11.22-4.514l-2.837-8.512c-4.385 1.29-8.125 2.708-11.349 4.127zm-58.551-33.918l-5.804-8.899c-3.224 1.677-6.577 3.482-10.059 5.546l5.932 9.028c3.353-2.063 6.577-3.998 9.93-5.675zm26.438 58.035l6.19 9.286c2.192-3.224 4.772-6.19 7.609-9.157l-5.804-8.77c-2.966 2.708-5.675 5.675-7.996 8.641zm-18.7 41.527l10.446 8.254c.516-5.03 1.419-10.059 2.708-15.089l-9.286-7.351c-1.677 4.772-2.837 9.544-3.869 14.186zm-56.488-61.259l-9.157-7.996c-3.353 3.224-6.577 6.448-9.544 9.673l9.93 8.512c2.708-3.482 5.675-6.964 8.77-10.188zm-38.948 57.648l-14.831-5.417c-2.45 5.546-5.159 11.994-6.448 15.476l14.831 5.417c1.677-4.385 4.385-10.704 6.448-15.476zm93.501 36.369c.258 6.835.903 12.381 1.548 16.25l15.476 5.546c-1.161-5.03-2.321-10.704-3.095-16.766l-13.928-5.03z"/></g></svg>