<svg width="256" height="256" viewBox="0 0 256 256" xmlns="http://www.w3.org/2000/svg" preserveAspectRatio="xMidYMid"><path d="M96.447 7.382c32.268-8.275 67.929-3.453 96.387 14.11 35.84 21.433 59.237 61.976 59.833 103.71 1.31 42.151-20.659 83.944-55.963 106.865-39.293 26.433-93.648 27.446-133.775 2.322-40.9-24.409-64.774-73.645-58.642-120.915 4.941-49.95 43.52-94.006 92.16-106.091z" fill="#010101"/><path d="M91.505 27.803c60.964-24.409 135.74 20.659 142.05 86.028 9.823 58.82-38.995 118.593-98.59 120.32-56.677 5.656-111.449-42.389-113.057-99.304-4.227-46.08 26.136-91.803 69.596-107.044z" fill="#fff"/><path d="M97.637 121.689c27.327-22.326 54.058-45.425 81.98-67.096-14.646 22.504-29.708 44.711-44.353 67.215-12.562.06-25.124.06-37.626-.119zM120.737 134.132c12.621 0 25.183 0 37.745.179-27.505 22.207-54.117 45.485-82.099 67.096 14.646-22.504 29.708-44.77 44.353-67.274z" fill="#010101"/></svg>