<svg width="512" height="125" viewBox="0 0 512 125" xmlns="http://www.w3.org/2000/svg" preserveAspectRatio="xMidYMid"><path d="M63.818 11.338h-26.564v82.283h-10.852v-82.283h-26.402v-9.718h63.818v9.718zm50.05 16.521l-30.289 76.29c-5.345 13.606-12.958 20.409-22.676 20.409-2.754 0-5.021-.324-6.803-.81v-9.394c2.268.81 4.373 1.134 6.155 1.134 5.345 0 9.233-3.239 11.986-9.556l5.183-12.472-25.592-65.599h11.662l17.817 50.536c.162.648.648 2.268 1.296 5.021h.324c.162-.972.648-2.592 1.296-4.859l18.627-50.698h11.014zm17.169 56.205h-.324v39.684h-10.528v-95.889h10.528v11.5h.324c5.183-8.747 12.796-13.12 22.676-13.12 8.423 0 15.064 2.916 19.761 8.747 4.697 5.831 7.127 13.768 7.127 23.648 0 11.014-2.754 19.761-8.099 26.402-5.345 6.641-12.634 9.88-21.866 9.88-8.261.324-14.902-3.401-19.599-10.852zm-.162-26.402v9.233c0 5.507 1.782 10.042 5.345 13.768 3.563 3.725 7.937 5.669 13.444 5.669 6.317 0 11.338-2.43 15.064-7.289 3.563-4.859 5.345-11.662 5.345-20.409 0-7.289-1.62-13.12-5.021-17.169-3.401-4.211-7.937-6.155-13.768-6.155-6.155 0-11.014 2.106-14.74 6.317-3.887 4.211-5.669 9.556-5.669 16.035zm114.192 5.669h-46.325c.162 7.289 2.106 12.958 5.831 17.007 3.725 4.049 8.909 5.993 15.55 5.993 7.451 0 14.254-2.43 20.409-7.289v9.88c-5.831 4.211-13.444 6.317-22.838 6.317-9.233 0-16.521-2.916-21.866-8.909-5.345-5.993-7.937-14.416-7.937-25.106 0-10.204 2.916-18.627 8.747-24.944 5.831-6.479 12.958-9.718 21.543-9.718 8.585 0 15.226 2.754 19.923 8.423 4.697 5.507 7.127 13.282 7.127 23.162l-.162 5.183zm-10.852-8.909c0-6.155-1.458-10.852-4.373-14.254-2.916-3.401-6.965-5.021-11.986-5.021-5.021 0-9.233 1.782-12.634 5.345-3.401 3.563-5.669 8.261-6.479 13.93h35.472zm16.035 35.958v-7.289c6.641 4.211 13.282 6.317 20.085 6.317 7.127 0 12.634-1.458 16.359-4.535 3.725-3.078 5.507-7.127 5.507-12.472 0-4.697-1.296-8.423-3.725-11.338-2.43-2.754-7.937-6.641-16.197-11.5-9.394-5.507-15.226-10.042-17.655-13.606-2.43-3.725-3.725-7.937-3.725-12.634 0-6.479 2.592-11.986 7.613-16.521 5.021-4.535 11.824-6.803 20.247-6.803 5.507 0 11.014.972 16.359 2.754v6.641c-5.345-2.43-11.176-3.725-17.331-3.725-6.317 0-11.176 1.62-14.902 4.697-3.725 3.239-5.507 7.127-5.507 11.986 0 4.697 1.296 8.423 3.725 11.176 2.43 2.754 7.937 6.641 16.197 11.338 8.585 4.859 14.254 9.233 17.169 12.958 2.916 3.725 4.211 8.099 4.211 13.12 0 7.127-2.43 12.796-7.289 17.331s-11.824 6.641-20.733 6.641c-3.239 0-6.803-.486-11.014-1.458-4.211-.972-7.289-1.782-9.394-3.078zm103.177.324c-4.859 2.916-10.69 4.535-17.493 4.535-8.909 0-16.197-3.078-21.705-9.233-5.507-6.155-8.261-14.092-8.261-24.134 0-10.366 3.078-18.951 9.233-25.592 6.155-6.641 14.092-10.042 23.81-10.042 5.021 0 9.88.972 14.578 3.078v6.641c-4.697-2.916-9.88-4.373-15.388-4.373-7.775 0-13.93 2.754-18.789 8.261-4.859 5.507-7.127 12.796-7.127 21.543 0 8.585 2.268 15.388 6.641 20.571 4.373 5.183 10.204 7.775 17.331 7.775 6.641 0 12.31-1.782 17.169-5.183v6.155zm39.198-56.691c-1.944-1.458-4.211-2.106-6.965-2.106-5.183 0-9.556 2.754-12.958 8.099-3.563 5.345-5.183 12.958-5.183 22.838v30.937h-5.831v-65.923h5.831v14.578h.324c1.458-5.021 3.887-8.909 7.127-11.662 3.239-2.754 6.965-4.211 11.338-4.211 2.43 0 4.697.324 6.479 1.134v6.317h-.162zm9.394-22.676c-1.296 0-2.43-.486-3.401-1.458-.972-.972-1.458-2.106-1.458-3.563 0-1.458.486-2.592 1.458-3.401.972-.81 2.106-1.296 3.401-1.296 1.296 0 2.43.486 3.563 1.296.972.81 1.458 1.944 1.458 3.401 0 1.296-.486 2.592-1.458 3.563-1.134.972-2.268 1.458-3.563 1.458zm-2.916 82.283v-65.761h5.831v65.761h-5.831zm26.078-11.662h-.324v41.951h-5.831v-96.051h5.831v13.606h.324c2.43-4.859 5.669-8.585 10.042-11.176 4.373-2.592 9.233-3.887 14.416-3.887 8.423 0 14.902 2.916 19.599 8.585 4.697 5.831 6.965 13.606 6.965 23.486 0 11.014-2.754 19.923-8.099 26.726-5.345 6.803-12.472 10.204-21.219 10.204-9.718-.162-17.007-4.535-21.705-13.444zm-.324-24.458v8.261c0 6.641 2.106 12.31 6.155 17.007 4.211 4.697 9.556 7.127 16.359 7.127 6.641 0 12.148-2.916 16.359-8.585 4.211-5.831 6.317-13.282 6.317-22.676 0-8.261-1.944-14.74-5.831-19.599-3.887-4.859-8.909-7.289-15.388-7.289-7.613 0-13.606 2.592-17.817 7.775s-6.155 11.014-6.155 17.979zm87.142 35.148c-3.078 1.458-5.993 2.106-8.585 2.106-9.718 0-14.578-5.831-14.578-17.493v-43.895h-11.824v-5.345h11.824v-17.169l2.916-.972 2.916-.972v19.113h17.331v5.345h-17.331v43.409c0 4.535.648 7.775 2.106 9.88 1.458 2.106 3.887 3.078 7.289 3.078 2.43 0 5.021-.81 7.937-2.43v5.345z" fill="#007ACC"/></svg>